<svg xmlns="http://www.w3.org/2000/svg" width="28" height="28" viewBox="0 0 28 28">
  <g id="Group_54152" data-name="Group 54152" transform="translate(-380 -858)">
    <path id="Path_206572" data-name="Path 206572" d="M14,0A14,14,0,1,1,0,14,14,14,0,0,1,14,0Z" transform="translate(380 858)"/>
    <path id="Path_206696" data-name="Path 206696" d="M184.005,101.075h-4.873a1.612,1.612,0,0,1-1.617-1.617V87.3a1.612,1.612,0,0,1,1.617-1.617h4.873a1.612,1.612,0,0,1,1.617,1.617v12.16A1.6,1.6,0,0,1,184.005,101.075Zm1.085-1.949V87.5a1.229,1.229,0,0,0-1.218-1.218h-4.607a1.229,1.229,0,0,0-1.218,1.218V99.126a1.229,1.229,0,0,0,1.218,1.218h4.629a1.21,1.21,0,0,0,1.2-1.218Z" transform="translate(211.976 779.091)" fill="#fff" stroke="#fff" stroke-width="1.5"/>
  </g>
</svg>
