<svg xmlns="http://www.w3.org/2000/svg" width="28" height="28" viewBox="0 0 28 28">
  <g id="Group_51378" data-name="Group 51378" transform="translate(-1080.967 -858.001)">
    <path id="Path_206571" data-name="Path 206571" d="M14,0A14,14,0,1,1,0,14,14,14,0,0,1,14,0Z" transform="translate(1080.967 858.001)"/>
    <path id="Path_206695" data-name="Path 206695" d="M181.116,101.067a19.377,19.377,0,0,0-6.37,0,4.731,4.731,0,0,0-3.9,3.9,19.377,19.377,0,0,0,0,6.37,4.73,4.73,0,0,0,3.9,3.9,20.059,20.059,0,0,0,6.37-.018,4.731,4.731,0,0,0,3.9-3.9,19.655,19.655,0,0,0-.009-6.361,4.731,4.731,0,0,0-3.889-3.889Zm2.089,9.959a2.9,2.9,0,0,1-2.389,2.389,18.267,18.267,0,0,1-5.769,0,2.9,2.9,0,0,1-2.389-2.389,17.543,17.543,0,0,1,0-5.767,2.9,2.9,0,0,1,2.389-2.392,17.575,17.575,0,0,1,1.968-.2v5.324l-1.146-1.146a.954.954,0,0,0-1.208-.142.917.917,0,0,0-.126,1.4l1.97,1.97h0a2.022,2.022,0,0,0,2.859,0l1.97-1.97h0a.917.917,0,0,0-.149-1.419.931.931,0,0,0-1.165.138l-1.169,1.165v-5.322a17.541,17.541,0,0,1,1.968.211,2.9,2.9,0,0,1,2.389,2.38,18.266,18.266,0,0,1,0,5.769Z" transform="translate(917.119 763.361)" fill="#fff"/>
  </g>
</svg>
