<svg width="40" height="40" viewBox="0 0 40 40" fill="none" xmlns="http://www.w3.org/2000/svg">
<mask id="mask0_1507_36" style="mask-type:alpha" maskUnits="userSpaceOnUse" x="0" y="0" width="40" height="40">
<rect width="40" height="40" fill="#D9D9D9"/>
</mask>
<g mask="url(#mask0_1507_36)">
<path d="M10.0096 33.3136C8.62071 33.3136 7.44016 32.8275 6.46794 31.8553C5.49571 30.8831 5.0096 29.7025 5.0096 28.3136H1.67627V9.98031C1.67627 9.06364 2.00266 8.27892 2.65544 7.62614C3.30821 6.97336 4.09294 6.64697 5.0096 6.64697H28.3429V13.3136H33.3429L38.3429 19.9803V28.3136H35.0096C35.0096 29.7025 34.5235 30.8831 33.5513 31.8553C32.5791 32.8275 31.3985 33.3136 30.0096 33.3136C28.6207 33.3136 27.4402 32.8275 26.4679 31.8553C25.4957 30.8831 25.0096 29.7025 25.0096 28.3136H15.0096C15.0096 29.7025 14.5235 30.8831 13.5513 31.8553C12.579 32.8275 11.3985 33.3136 10.0096 33.3136ZM10.0096 29.9803C10.4818 29.9803 10.8777 29.8206 11.1971 29.5011C11.5165 29.1817 11.6763 28.7859 11.6763 28.3136C11.6763 27.8414 11.5165 27.4456 11.1971 27.1261C10.8777 26.8067 10.4818 26.647 10.0096 26.647C9.53738 26.647 9.14155 26.8067 8.8221 27.1261C8.50266 27.4456 8.34294 27.8414 8.34294 28.3136C8.34294 28.7859 8.50266 29.1817 8.8221 29.5011C9.14155 29.8206 9.53738 29.9803 10.0096 29.9803ZM5.0096 24.9803H6.34294C6.81516 24.4803 7.35683 24.0775 7.96794 23.772C8.57905 23.4664 9.2596 23.3136 10.0096 23.3136C10.7596 23.3136 11.4402 23.4664 12.0513 23.772C12.6624 24.0775 13.204 24.4803 13.6763 24.9803H25.0096V9.98031H5.0096V24.9803ZM30.0096 29.9803C30.4818 29.9803 30.8777 29.8206 31.1971 29.5011C31.5166 29.1817 31.6763 28.7859 31.6763 28.3136C31.6763 27.8414 31.5166 27.4456 31.1971 27.1261C30.8777 26.8067 30.4818 26.647 30.0096 26.647C29.5374 26.647 29.1416 26.8067 28.8221 27.1261C28.5027 27.4456 28.3429 27.8414 28.3429 28.3136C28.3429 28.7859 28.5027 29.1817 28.8221 29.5011C29.1416 29.8206 29.5374 29.9803 30.0096 29.9803ZM28.3429 21.647H35.4263L31.6763 16.647H28.3429V21.647Z" fill="#1C1C1C"/>
</g>
</svg>
