<svg width="40" height="40" viewBox="0 0 40 40" fill="none" xmlns="http://www.w3.org/2000/svg">
<mask id="mask0_1507_71" style="mask-type:alpha" maskUnits="userSpaceOnUse" x="0" y="0" width="40" height="40">
<rect width="40" height="40" fill="#D9D9D9"/>
</mask>
<g mask="url(#mask0_1507_71)">
<path d="M17.4585 36.6665C16.6807 36.6665 15.9516 36.4998 15.271 36.1665C14.5904 35.8332 14.0141 35.3609 13.5418 34.7498L4.4585 23.2082L5.25016 22.3748C5.80572 21.7915 6.47239 21.4443 7.25016 21.3332C8.02794 21.2221 8.75016 21.3748 9.41683 21.7915L12.5002 23.6665V9.99984C12.5002 9.52761 12.6599 9.13178 12.9793 8.81234C13.2988 8.49289 13.6946 8.33317 14.1668 8.33317C14.6391 8.33317 15.0418 8.49289 15.3752 8.81234C15.7085 9.13178 15.8752 9.52761 15.8752 9.99984V29.6665L11.8335 27.1665L16.1668 32.7082C16.3335 32.9026 16.5279 33.0554 16.7502 33.1665C16.9724 33.2776 17.2085 33.3332 17.4585 33.3332H26.6668C27.5835 33.3332 28.3682 33.0068 29.021 32.354C29.6738 31.7012 30.0002 30.9165 30.0002 29.9998V23.3332C30.0002 22.8609 29.8404 22.4651 29.521 22.1457C29.2016 21.8262 28.8057 21.6665 28.3335 21.6665H19.2085V18.3332H28.3335C29.7224 18.3332 30.9029 18.8193 31.8752 19.7915C32.8474 20.7637 33.3335 21.9443 33.3335 23.3332V29.9998C33.3335 31.8332 32.6807 33.4026 31.3752 34.7082C30.0696 36.0137 28.5002 36.6665 26.6668 36.6665H17.4585ZM6.9585 14.1665C6.59739 13.5554 6.31961 12.8957 6.12516 12.1873C5.93072 11.479 5.8335 10.7498 5.8335 9.99984C5.8335 7.69428 6.646 5.729 8.271 4.104C9.896 2.479 11.8613 1.6665 14.1668 1.6665C16.4724 1.6665 18.4377 2.479 20.0627 4.104C21.6877 5.729 22.5002 7.69428 22.5002 9.99984C22.5002 10.7498 22.4029 11.479 22.2085 12.1873C22.0141 12.8957 21.7363 13.5554 21.3752 14.1665L18.5002 12.4998C18.7224 12.1109 18.8891 11.7151 19.0002 11.3123C19.1113 10.9096 19.1668 10.4721 19.1668 9.99984C19.1668 8.61095 18.6807 7.43039 17.7085 6.45817C16.7363 5.48595 15.5557 4.99984 14.1668 4.99984C12.7779 4.99984 11.5974 5.48595 10.6252 6.45817C9.65294 7.43039 9.16683 8.61095 9.16683 9.99984C9.16683 10.4721 9.22239 10.9096 9.3335 11.3123C9.44461 11.7151 9.61127 12.1109 9.8335 12.4998L6.9585 14.1665Z" fill="#1C1B1F"/>
</g>
</svg>
