<svg width="40" height="40" viewBox="0 0 40 40" fill="none" xmlns="http://www.w3.org/2000/svg">
<mask id="mask0_1507_89" style="mask-type:alpha" maskUnits="userSpaceOnUse" x="0" y="0" width="40" height="40">
<rect width="40" height="40" fill="#D9D9D9"/>
</mask>
<g mask="url(#mask0_1507_89)">
<path d="M9 32.6667C7.75 31.4167 6.77083 29.9723 6.0625 28.3334C5.35417 26.6945 5 25 5 23.25C5 21.5 5.33333 19.7709 6 18.0625C6.66667 16.3542 7.75 14.75 9.25 13.25C10.2222 12.2778 11.4236 11.4445 12.8542 10.75C14.2847 10.0556 15.9792 9.50698 17.9375 9.1042C19.8958 8.70143 22.1319 8.45837 24.6458 8.37504C27.1597 8.2917 29.9722 8.38893 33.0833 8.6667C33.3056 11.6111 33.375 14.3195 33.2917 16.7917C33.2083 19.2639 32.9792 21.4931 32.6042 23.4792C32.2292 25.4653 31.7014 27.2014 31.0208 28.6875C30.3403 30.1736 29.5 31.4167 28.5 32.4167C27.0278 33.8889 25.4653 34.9653 23.8125 35.6459C22.1597 36.3264 20.4722 36.6667 18.75 36.6667C16.9444 36.6667 15.1806 36.3125 13.4583 35.6042C11.7361 34.8959 10.25 33.9167 9 32.6667ZM13.6667 32C14.4722 32.4723 15.2986 32.8125 16.1458 33.0209C16.9931 33.2292 17.8611 33.3334 18.75 33.3334C20.0278 33.3334 21.2917 33.0764 22.5417 32.5625C23.7917 32.0486 24.9861 31.2223 26.125 30.0834C26.625 29.5834 27.1319 28.882 27.6458 27.9792C28.1597 27.0764 28.6042 25.8959 28.9792 24.4375C29.3542 22.9792 29.6389 21.2153 29.8333 19.1459C30.0278 17.0764 30.0556 14.6111 29.9167 11.75C28.5556 11.6945 27.0208 11.6736 25.3125 11.6875C23.6042 11.7014 21.9028 11.8334 20.2083 12.0834C18.5139 12.3334 16.9028 12.7361 15.375 13.2917C13.8472 13.8473 12.5972 14.6111 11.625 15.5834C10.375 16.8334 9.51389 18.0695 9.04167 19.2917C8.56944 20.5139 8.33333 21.6945 8.33333 22.8334C8.33333 24.4723 8.64583 25.9098 9.27083 27.1459C9.89583 28.382 10.4444 29.25 10.9167 29.75C12.0833 27.5278 13.625 25.3959 15.5417 23.3542C17.4583 21.3125 19.6944 19.6389 22.25 18.3334C20.25 20.0834 18.5069 22.0625 17.0208 24.2709C15.5347 26.4792 14.4167 29.0556 13.6667 32Z" fill="#1C1B1F"/>
</g>
</svg>
