<svg xmlns="http://www.w3.org/2000/svg" width="28" height="28" viewBox="0 0 28 28">
  <g id="Group_55073" data-name="Group 55073" transform="translate(-119 -860)">
    <path id="Path_206693" data-name="Path 206693" d="M14,0A14,14,0,1,1,0,14,14,14,0,0,1,14,0Z" transform="translate(119 860)"/>
    <path id="Path_206694" data-name="Path 206694" d="M163.969,30.175a5.27,5.27,0,0,0-5.361,6.659s.18.651.305,1.108a13.2,13.2,0,0,0,3.442,5.421,1.933,1.933,0,0,0,2.657,0,13.144,13.144,0,0,0,3.748-6.512c.032-.131.062-.265.092-.414.014-.092.026-.178.026-.178a5.227,5.227,0,0,0,.065-.834,5.323,5.323,0,0,0-4.974-5.247Zm1.449,5.256a1.758,1.758,0,1,1-1.759-1.757A1.76,1.76,0,0,1,165.418,35.431Z" transform="translate(-30.42 836.832)" fill="#fff"/>
  </g>
</svg>
