<svg xmlns="http://www.w3.org/2000/svg" width="12.504" height="22.275" viewBox="0 0 12.504 22.275" fill="#000">
  <g id="Group_53605" data-name="Group 53605" transform="translate(0.75 0.75)">
    <g id="Group_53604" data-name="Group 53604">
      <g id="Group_53603" data-name="Group 53603" transform="translate(0 0)">
        <g id="Group_53602" data-name="Group 53602" transform="translate(0 0)">
          <path id="Path_206696" data-name="Path 206696" d="M186.324,106.457H179.71a2.181,2.181,0,0,1-2.195-2.182V87.864a2.181,2.181,0,0,1,2.195-2.182h6.614a2.181,2.181,0,0,1,2.195,2.182v16.41A2.163,2.163,0,0,1,186.324,106.457Zm1.473-2.63V88.133a1.663,1.663,0,0,0-1.653-1.644h-6.253a1.663,1.663,0,0,0-1.653,1.644v15.693a1.663,1.663,0,0,0,1.653,1.644h6.283a1.638,1.638,0,0,0,1.623-1.644Z" transform="translate(-177.516 -85.682)" stroke="#000" stroke-width="1.5"/>
          <path id="Path_206697" data-name="Path 206697" d="M335.813,410.1a1.306,1.306,0,1,1-1.306-1.3,1.3,1.3,0,0,1,1.306,1.3" transform="translate(-328.931 -393.84)"/>
        </g>
      </g>
    </g>
  </g>
</svg>
