<svg xmlns="http://www.w3.org/2000/svg" width="28" height="28" viewBox="0 0 28 28">
  <g id="Group_54831" data-name="Group 54831" transform="translate(-857.463 -858.001)">
    <path id="Path_207002" data-name="Path 207002" d="M14,0A14,14,0,1,1,0,14,14,14,0,0,1,14,0Z" transform="translate(857.463 858.001)"/>
    <path id="Path_206699" data-name="Path 206699" d="M179.075,100.794a8.268,8.268,0,1,0,4.134,1.108,8.269,8.269,0,0,0-4.134-1.108Zm0,2.067A6.2,6.2,0,0,1,184.92,107H173.23a6.2,6.2,0,0,1,5.845-4.135Zm0,6.2v0Zm-6.2,0h2.067a3.1,3.1,0,0,1,3.1,3.1v3.013a6.2,6.2,0,0,1-5.168-6.114Zm7.236,6.114v-3.013a3.1,3.1,0,0,1,3.1-3.1h2.067a6.2,6.2,0,0,1-5.168,6.114Z" transform="translate(692.388 762.938)" fill="#fff"/>
  </g>
</svg>
